<svg id="visual" viewBox="0 0 900 300" width="900" height="300" xmlns="http://www.w3.org/2000/svg" xmlns:xlink="http://www.w3.org/1999/xlink" version="1.1"><rect x="0" y="0" width="900" height="300" fill="#27282c"></rect><path d="M0 118L8.8 117C17.7 116 35.3 114 53 111.8C70.7 109.7 88.3 107.3 106 108.8C123.7 110.3 141.3 115.7 159 112.5C176.7 109.3 194.3 97.7 212 100C229.7 102.3 247.3 118.7 265 118.5C282.7 118.3 300.3 101.7 318 101C335.7 100.3 353.3 115.7 371 115.2C388.7 114.7 406.3 98.3 423.8 95.3C441.3 92.3 458.7 102.7 476.2 110.5C493.7 118.3 511.3 123.7 529 126.2C546.7 128.7 564.3 128.3 582 127.7C599.7 127 617.3 126 635 122.2C652.7 118.3 670.3 111.7 688 108C705.7 104.3 723.3 103.7 741 96C758.7 88.3 776.3 73.7 794 70C811.7 66.3 829.3 73.7 847 83.3C864.7 93 882.3 105 891.2 111L900 117L900 301L891.2 301C882.3 301 864.7 301 847 301C829.3 301 811.7 301 794 301C776.3 301 758.7 301 741 301C723.3 301 705.7 301 688 301C670.3 301 652.7 301 635 301C617.3 301 599.7 301 582 301C564.3 301 546.7 301 529 301C511.3 301 493.7 301 476.2 301C458.7 301 441.3 301 423.8 301C406.3 301 388.7 301 371 301C353.3 301 335.7 301 318 301C300.3 301 282.7 301 265 301C247.3 301 229.7 301 212 301C194.3 301 176.7 301 159 301C141.3 301 123.7 301 106 301C88.3 301 70.7 301 53 301C35.3 301 17.7 301 8.8 301L0 301Z" fill="#27282c"></path><path d="M0 101L8.8 108C17.7 115 35.3 129 53 136.8C70.7 144.7 88.3 146.3 106 143.3C123.7 140.3 141.3 132.7 159 121.5C176.7 110.3 194.3 95.7 212 89C229.7 82.3 247.3 83.7 265 90.8C282.7 98 300.3 111 318 117C335.7 123 353.3 122 371 124.2C388.7 126.3 406.3 131.7 423.8 126.3C441.3 121 458.7 105 476.2 101.3C493.7 97.7 511.3 106.3 529 105.5C546.7 104.7 564.3 94.3 582 99.5C599.7 104.7 617.3 125.3 635 133.8C652.7 142.3 670.3 138.7 688 138C705.7 137.3 723.3 139.7 741 131.8C758.7 124 776.3 106 794 101.2C811.7 96.3 829.3 104.7 847 113.5C864.7 122.3 882.3 131.7 891.2 136.3L900 141L900 301L891.2 301C882.3 301 864.7 301 847 301C829.3 301 811.7 301 794 301C776.3 301 758.7 301 741 301C723.3 301 705.7 301 688 301C670.3 301 652.7 301 635 301C617.3 301 599.7 301 582 301C564.3 301 546.7 301 529 301C511.3 301 493.7 301 476.2 301C458.7 301 441.3 301 423.8 301C406.3 301 388.7 301 371 301C353.3 301 335.7 301 318 301C300.3 301 282.7 301 265 301C247.3 301 229.7 301 212 301C194.3 301 176.7 301 159 301C141.3 301 123.7 301 106 301C88.3 301 70.7 301 53 301C35.3 301 17.7 301 8.8 301L0 301Z" fill="#30303d"></path><path d="M0 119L8.8 123.2C17.7 127.3 35.3 135.7 53 139.2C70.7 142.7 88.3 141.3 106 138.3C123.7 135.3 141.3 130.7 159 126.3C176.7 122 194.3 118 212 121.5C229.7 125 247.3 136 265 138.8C282.7 141.7 300.3 136.3 318 131C335.7 125.7 353.3 120.3 371 121.7C388.7 123 406.3 131 423.8 128C441.3 125 458.7 111 476.2 115C493.7 119 511.3 141 529 152C546.7 163 564.3 163 582 162.8C599.7 162.7 617.3 162.3 635 159C652.7 155.7 670.3 149.3 688 144.3C705.7 139.3 723.3 135.7 741 131.8C758.7 128 776.3 124 794 123.2C811.7 122.3 829.3 124.7 847 125.7C864.7 126.7 882.3 126.3 891.2 126.2L900 126L900 301L891.2 301C882.3 301 864.7 301 847 301C829.3 301 811.7 301 794 301C776.3 301 758.7 301 741 301C723.3 301 705.7 301 688 301C670.3 301 652.7 301 635 301C617.3 301 599.7 301 582 301C564.3 301 546.7 301 529 301C511.3 301 493.7 301 476.2 301C458.7 301 441.3 301 423.8 301C406.3 301 388.7 301 371 301C353.3 301 335.7 301 318 301C300.3 301 282.7 301 265 301C247.3 301 229.7 301 212 301C194.3 301 176.7 301 159 301C141.3 301 123.7 301 106 301C88.3 301 70.7 301 53 301C35.3 301 17.7 301 8.8 301L0 301Z" fill="#3d384d"></path><path d="M0 143L8.8 148.5C17.7 154 35.3 165 53 170.3C70.7 175.7 88.3 175.3 106 171.5C123.7 167.7 141.3 160.3 159 154C176.7 147.7 194.3 142.3 212 140.7C229.7 139 247.3 141 265 146.8C282.7 152.7 300.3 162.3 318 166.2C335.7 170 353.3 168 371 162C388.7 156 406.3 146 423.8 147.8C441.3 149.7 458.7 163.3 476.2 160C493.7 156.7 511.3 136.3 529 130.8C546.7 125.3 564.3 134.7 582 138.5C599.7 142.3 617.3 140.7 635 137.2C652.7 133.7 670.3 128.3 688 126.8C705.7 125.3 723.3 127.7 741 131.2C758.7 134.7 776.3 139.3 794 140.3C811.7 141.3 829.3 138.7 847 137.2C864.7 135.7 882.3 135.3 891.2 135.2L900 135L900 301L891.2 301C882.3 301 864.7 301 847 301C829.3 301 811.7 301 794 301C776.3 301 758.7 301 741 301C723.3 301 705.7 301 688 301C670.3 301 652.7 301 635 301C617.3 301 599.7 301 582 301C564.3 301 546.7 301 529 301C511.3 301 493.7 301 476.2 301C458.7 301 441.3 301 423.8 301C406.3 301 388.7 301 371 301C353.3 301 335.7 301 318 301C300.3 301 282.7 301 265 301C247.3 301 229.7 301 212 301C194.3 301 176.7 301 159 301C141.3 301 123.7 301 106 301C88.3 301 70.7 301 53 301C35.3 301 17.7 301 8.8 301L0 301Z" fill="#4e3f5c"></path><path d="M0 136L8.8 140.8C17.7 145.7 35.3 155.3 53 163.2C70.7 171 88.3 177 106 173.3C123.7 169.7 141.3 156.3 159 154.8C176.7 153.3 194.3 163.7 212 164.7C229.7 165.7 247.3 157.3 265 154.8C282.7 152.3 300.3 155.7 318 158.3C335.7 161 353.3 163 371 163.8C388.7 164.7 406.3 164.3 423.8 166.7C441.3 169 458.7 174 476.2 173C493.7 172 511.3 165 529 164C546.7 163 564.3 168 582 167.5C599.7 167 617.3 161 635 155.2C652.7 149.3 670.3 143.7 688 142.5C705.7 141.3 723.3 144.7 741 151C758.7 157.3 776.3 166.7 794 173.5C811.7 180.3 829.3 184.7 847 180C864.7 175.3 882.3 161.7 891.2 154.8L900 148L900 301L891.2 301C882.3 301 864.7 301 847 301C829.3 301 811.7 301 794 301C776.3 301 758.7 301 741 301C723.3 301 705.7 301 688 301C670.3 301 652.7 301 635 301C617.3 301 599.7 301 582 301C564.3 301 546.7 301 529 301C511.3 301 493.7 301 476.2 301C458.7 301 441.3 301 423.8 301C406.3 301 388.7 301 371 301C353.3 301 335.7 301 318 301C300.3 301 282.7 301 265 301C247.3 301 229.7 301 212 301C194.3 301 176.7 301 159 301C141.3 301 123.7 301 106 301C88.3 301 70.7 301 53 301C35.3 301 17.7 301 8.8 301L0 301Z" fill="#634468"></path><path d="M0 168L8.8 173.5C17.7 179 35.3 190 53 189.2C70.7 188.3 88.3 175.7 106 175.7C123.7 175.7 141.3 188.3 159 187.5C176.7 186.7 194.3 172.3 212 168.5C229.7 164.7 247.3 171.3 265 173C282.7 174.7 300.3 171.3 318 171.2C335.7 171 353.3 174 371 178.2C388.7 182.3 406.3 187.7 423.8 191.3C441.3 195 458.7 197 476.2 198.7C493.7 200.3 511.3 201.7 529 199.7C546.7 197.7 564.3 192.3 582 188.7C599.7 185 617.3 183 635 181.2C652.7 179.3 670.3 177.7 688 173.5C705.7 169.3 723.3 162.7 741 163.7C758.7 164.7 776.3 173.3 794 180.5C811.7 187.7 829.3 193.3 847 193.8C864.7 194.3 882.3 189.7 891.2 187.3L900 185L900 301L891.2 301C882.3 301 864.7 301 847 301C829.3 301 811.7 301 794 301C776.3 301 758.7 301 741 301C723.3 301 705.7 301 688 301C670.3 301 652.7 301 635 301C617.3 301 599.7 301 582 301C564.3 301 546.7 301 529 301C511.3 301 493.7 301 476.2 301C458.7 301 441.3 301 423.8 301C406.3 301 388.7 301 371 301C353.3 301 335.7 301 318 301C300.3 301 282.7 301 265 301C247.3 301 229.7 301 212 301C194.3 301 176.7 301 159 301C141.3 301 123.7 301 106 301C88.3 301 70.7 301 53 301C35.3 301 17.7 301 8.8 301L0 301Z" fill="#7a4972"></path><path d="M0 201L8.8 202C17.7 203 35.3 205 53 206.5C70.7 208 88.3 209 106 204.2C123.7 199.3 141.3 188.7 159 185.3C176.7 182 194.3 186 212 191.3C229.7 196.7 247.3 203.3 265 203.3C282.7 203.3 300.3 196.7 318 192.8C335.7 189 353.3 188 371 186.5C388.7 185 406.3 183 423.8 186.5C441.3 190 458.7 199 476.2 199.5C493.7 200 511.3 192 529 187C546.7 182 564.3 180 582 179C599.7 178 617.3 178 635 181C652.7 184 670.3 190 688 193C705.7 196 723.3 196 741 193.5C758.7 191 776.3 186 794 189.3C811.7 192.7 829.3 204.3 847 207.3C864.7 210.3 882.3 204.7 891.2 201.8L900 199L900 301L891.2 301C882.3 301 864.7 301 847 301C829.3 301 811.7 301 794 301C776.3 301 758.7 301 741 301C723.3 301 705.7 301 688 301C670.3 301 652.7 301 635 301C617.3 301 599.7 301 582 301C564.3 301 546.7 301 529 301C511.3 301 493.7 301 476.2 301C458.7 301 441.3 301 423.8 301C406.3 301 388.7 301 371 301C353.3 301 335.7 301 318 301C300.3 301 282.7 301 265 301C247.3 301 229.7 301 212 301C194.3 301 176.7 301 159 301C141.3 301 123.7 301 106 301C88.3 301 70.7 301 53 301C35.3 301 17.7 301 8.8 301L0 301Z" fill="#924d78"></path><path d="M0 221L8.8 218.5C17.7 216 35.3 211 53 208.5C70.7 206 88.3 206 106 208.7C123.7 211.3 141.3 216.7 159 216.7C176.7 216.7 194.3 211.3 212 211C229.7 210.7 247.3 215.3 265 219.3C282.7 223.3 300.3 226.7 318 226.8C335.7 227 353.3 224 371 224.2C388.7 224.3 406.3 227.7 423.8 225.5C441.3 223.3 458.7 215.7 476.2 213.7C493.7 211.7 511.3 215.3 529 212.8C546.7 210.3 564.3 201.7 582 199C599.7 196.3 617.3 199.7 635 202.7C652.7 205.7 670.3 208.3 688 212.5C705.7 216.7 723.3 222.3 741 222.2C758.7 222 776.3 216 794 212C811.7 208 829.3 206 847 204.5C864.7 203 882.3 202 891.2 201.5L900 201L900 301L891.2 301C882.3 301 864.7 301 847 301C829.3 301 811.7 301 794 301C776.3 301 758.7 301 741 301C723.3 301 705.7 301 688 301C670.3 301 652.7 301 635 301C617.3 301 599.7 301 582 301C564.3 301 546.7 301 529 301C511.3 301 493.7 301 476.2 301C458.7 301 441.3 301 423.8 301C406.3 301 388.7 301 371 301C353.3 301 335.7 301 318 301C300.3 301 282.7 301 265 301C247.3 301 229.7 301 212 301C194.3 301 176.7 301 159 301C141.3 301 123.7 301 106 301C88.3 301 70.7 301 53 301C35.3 301 17.7 301 8.8 301L0 301Z" fill="#ab517a"></path><path d="M0 230L8.8 230.3C17.7 230.7 35.3 231.3 53 230.3C70.7 229.3 88.3 226.7 106 228.3C123.7 230 141.3 236 159 235.7C176.7 235.3 194.3 228.7 212 223.7C229.7 218.7 247.3 215.3 265 218.5C282.7 221.7 300.3 231.3 318 235.7C335.7 240 353.3 239 371 236.5C388.7 234 406.3 230 423.8 226.2C441.3 222.3 458.7 218.7 476.2 218.5C493.7 218.3 511.3 221.7 529 222C546.7 222.3 564.3 219.7 582 220.3C599.7 221 617.3 225 635 229.3C652.7 233.7 670.3 238.3 688 239C705.7 239.7 723.3 236.3 741 231.3C758.7 226.3 776.3 219.7 794 215.8C811.7 212 829.3 211 847 215.5C864.7 220 882.3 230 891.2 235L900 240L900 301L891.2 301C882.3 301 864.7 301 847 301C829.3 301 811.7 301 794 301C776.3 301 758.7 301 741 301C723.3 301 705.7 301 688 301C670.3 301 652.7 301 635 301C617.3 301 599.7 301 582 301C564.3 301 546.7 301 529 301C511.3 301 493.7 301 476.2 301C458.7 301 441.3 301 423.8 301C406.3 301 388.7 301 371 301C353.3 301 335.7 301 318 301C300.3 301 282.7 301 265 301C247.3 301 229.7 301 212 301C194.3 301 176.7 301 159 301C141.3 301 123.7 301 106 301C88.3 301 70.7 301 53 301C35.3 301 17.7 301 8.8 301L0 301Z" fill="#c35578"></path><path d="M0 231L8.8 233.7C17.7 236.3 35.3 241.7 53 242.3C70.7 243 88.3 239 106 238C123.7 237 141.3 239 159 241C176.7 243 194.3 245 212 247.3C229.7 249.7 247.3 252.3 265 250.3C282.7 248.3 300.3 241.7 318 239.2C335.7 236.7 353.3 238.3 371 239.8C388.7 241.3 406.3 242.7 423.8 242.7C441.3 242.7 458.7 241.3 476.2 239.2C493.7 237 511.3 234 529 235C546.7 236 564.3 241 582 244.7C599.7 248.3 617.3 250.7 635 248.3C652.7 246 670.3 239 688 235.3C705.7 231.7 723.3 231.3 741 231.5C758.7 231.7 776.3 232.3 794 233.2C811.7 234 829.3 235 847 234.7C864.7 234.3 882.3 232.7 891.2 231.8L900 231L900 301L891.2 301C882.3 301 864.7 301 847 301C829.3 301 811.7 301 794 301C776.3 301 758.7 301 741 301C723.3 301 705.7 301 688 301C670.3 301 652.7 301 635 301C617.3 301 599.7 301 582 301C564.3 301 546.7 301 529 301C511.3 301 493.7 301 476.2 301C458.7 301 441.3 301 423.8 301C406.3 301 388.7 301 371 301C353.3 301 335.7 301 318 301C300.3 301 282.7 301 265 301C247.3 301 229.7 301 212 301C194.3 301 176.7 301 159 301C141.3 301 123.7 301 106 301C88.3 301 70.7 301 53 301C35.3 301 17.7 301 8.8 301L0 301Z" fill="#da5b74"></path><path d="M0 258L8.8 257.2C17.7 256.3 35.3 254.7 53 253.5C70.7 252.3 88.3 251.7 106 254.7C123.7 257.7 141.3 264.3 159 267.2C176.7 270 194.3 269 212 267C229.7 265 247.3 262 265 260.7C282.7 259.3 300.3 259.7 318 258.7C335.7 257.7 353.3 255.3 371 256.3C388.7 257.3 406.3 261.7 423.8 262.8C441.3 264 458.7 262 476.2 261.3C493.7 260.7 511.3 261.3 529 261.3C546.7 261.3 564.3 260.7 582 260.8C599.7 261 617.3 262 635 261.7C652.7 261.3 670.3 259.7 688 260C705.7 260.3 723.3 262.7 741 264C758.7 265.3 776.3 265.7 794 262.8C811.7 260 829.3 254 847 255C864.7 256 882.3 264 891.2 268L900 272L900 301L891.2 301C882.3 301 864.7 301 847 301C829.3 301 811.7 301 794 301C776.3 301 758.7 301 741 301C723.3 301 705.7 301 688 301C670.3 301 652.7 301 635 301C617.3 301 599.7 301 582 301C564.3 301 546.7 301 529 301C511.3 301 493.7 301 476.2 301C458.7 301 441.3 301 423.8 301C406.3 301 388.7 301 371 301C353.3 301 335.7 301 318 301C300.3 301 282.7 301 265 301C247.3 301 229.7 301 212 301C194.3 301 176.7 301 159 301C141.3 301 123.7 301 106 301C88.3 301 70.7 301 53 301C35.3 301 17.7 301 8.8 301L0 301Z" fill="#ee636c"></path><path d="M0 276L8.8 276.5C17.7 277 35.3 278 53 277.8C70.7 277.7 88.3 276.3 106 277.3C123.7 278.3 141.3 281.7 159 281C176.7 280.3 194.3 275.7 212 273C229.7 270.3 247.3 269.7 265 269.7C282.7 269.7 300.3 270.3 318 272C335.7 273.7 353.3 276.3 371 276.2C388.7 276 406.3 273 423.8 271.7C441.3 270.3 458.7 270.7 476.2 271.7C493.7 272.7 511.3 274.3 529 276C546.7 277.7 564.3 279.3 582 279.2C599.7 279 617.3 277 635 275C652.7 273 670.3 271 688 271.5C705.7 272 723.3 275 741 277C758.7 279 776.3 280 794 280.3C811.7 280.7 829.3 280.3 847 279.5C864.7 278.7 882.3 277.3 891.2 276.7L900 276L900 301L891.2 301C882.3 301 864.7 301 847 301C829.3 301 811.7 301 794 301C776.3 301 758.7 301 741 301C723.3 301 705.7 301 688 301C670.3 301 652.7 301 635 301C617.3 301 599.7 301 582 301C564.3 301 546.7 301 529 301C511.3 301 493.7 301 476.2 301C458.7 301 441.3 301 423.8 301C406.3 301 388.7 301 371 301C353.3 301 335.7 301 318 301C300.3 301 282.7 301 265 301C247.3 301 229.7 301 212 301C194.3 301 176.7 301 159 301C141.3 301 123.7 301 106 301C88.3 301 70.7 301 53 301C35.3 301 17.7 301 8.8 301L0 301Z" fill="#ff6f61"></path></svg>