<?xml version="1.0" encoding="UTF-8" standalone="no"?>
<!-- Created with Inkscape (http://www.inkscape.org/) -->

<svg
   width="135.46271mm"
   height="115.70937mm"
   viewBox="0 0 135.4627 115.70936"
   version="1.1"
   id="svg5"
   inkscape:version="1.2.2 (b0a8486541, 2022-12-01)"
   sodipodi:docname="logo.svg"
   xml:space="preserve"
   xmlns:inkscape="http://www.inkscape.org/namespaces/inkscape"
   xmlns:sodipodi="http://sodipodi.sourceforge.net/DTD/sodipodi-0.dtd"
   xmlns="http://www.w3.org/2000/svg"
   xmlns:svg="http://www.w3.org/2000/svg"><sodipodi:namedview
     id="namedview7"
     pagecolor="#ffffff"
     bordercolor="#000000"
     borderopacity="0.25"
     inkscape:showpageshadow="2"
     inkscape:pageopacity="0.0"
     inkscape:pagecheckerboard="0"
     inkscape:deskcolor="#d1d1d1"
     inkscape:document-units="mm"
     showgrid="false"
     inkscape:zoom="0.75187991"
     inkscape:cx="162.92495"
     inkscape:cy="272.64992"
     inkscape:window-width="1916"
     inkscape:window-height="1048"
     inkscape:window-x="0"
     inkscape:window-y="28"
     inkscape:window-maximized="1"
     inkscape:current-layer="layer1" /><defs
     id="defs2"><rect
       x="419.37915"
       y="211.66985"
       width="427.37537"
       height="481.44577"
       id="rect1060" /><rect
       x="63.533176"
       y="333.95584"
       width="510.4711"
       height="532.1817"
       id="rect290" /></defs><g
     inkscape:label="Layer 1"
     inkscape:groupmode="layer"
     id="layer1"
     transform="translate(-214.49273,-96.064368)"><path
       style="fill:#ac92eb;stroke-width:0.264583"
       d="M 337.37581,135.85472 280.93225,99.382442 c -0.97367,-0.630502 -2.23441,-0.599546 -3.17712,0.07858 l -50.79841,36.470168 c -0.73792,0.53128 -1.17607,1.38483 -1.17607,2.29235 v 70.72656 c 0,1.55866 1.26285,2.82364 2.82152,2.82364 h 107.23985 c 1.56263,0 2.82364,-1.26498 2.82364,-2.82364 v -70.72683 c 0,-0.95673 -0.48366,-1.8497 -1.28985,-2.36855 z"
       id="path1519" /><path
       style="fill:#a0d468;stroke-width:0.264583"
       d="m 296.33338,155.32991 h -28.22072 c -1.5584,0 -2.82125,1.26286 -2.82125,2.82125 v 50.79868 c 0,1.55866 1.26285,2.82363 2.82125,2.82363 h 28.22072 c 1.55866,0 2.82363,-1.26497 2.82363,-2.82363 v -50.79868 c 0,-1.55839 -1.26497,-2.82125 -2.82363,-2.82125 z"
       id="path1521" /><g
       id="g1529"
       transform="matrix(0.26458333,0,0,0.26458333,214.49273,86.187671)">
	<rect
   x="81.432999"
   y="275.202"
   style="fill:#5d9cec"
   width="80.889"
   height="79.550003"
   id="rect1523" />
	<rect
   x="352.99301"
   y="274.81201"
   style="fill:#5d9cec"
   width="83.997002"
   height="79.559998"
   id="rect1525" />
	<circle
   style="fill:#5d9cec"
   cx="257.96301"
   cy="186.93201"
   r="38.811001"
   id="circle1527" />
</g><path
       style="fill:#434a54;stroke-width:0.264583"
       d="m 276.57933,183.55037 c 0,1.55866 -1.26286,2.82363 -2.82152,2.82363 -1.56051,0 -2.82363,-1.26497 -2.82363,-2.82363 0,-1.55866 1.26285,-2.82337 2.82363,-2.82337 1.55866,0 2.82152,1.26497 2.82152,2.82337 z"
       id="path1531" /><path
       style="fill:#505050;fill-opacity:1;stroke-width:0.264583"
       d="m 348.43831,130.25085 -64.9097,-33.865608 c -0.81862,-0.427832 -1.79203,-0.427832 -2.61065,0 l -64.91023,33.865608 c -0.93212,0.48577 -1.515,1.45097 -1.515,2.50111 v 11.29003 c 0,0.9861 0.51435,1.90183 1.35784,2.41221 0.84349,0.51276 1.89336,0.54557 2.76781,0.0889 l 63.60583,-33.18351 63.6053,33.18351 c 0.40508,0.21299 0.85567,0.32041 1.30228,0.32041 0.50853,0 1.01283,-0.13653 1.46341,-0.40931 0.84349,-0.51065 1.36023,-1.42637 1.36023,-2.41221 v -11.29003 c 0,-1.05014 -0.58711,-2.01534 -1.51712,-2.50111 z"
       id="path1533" /><path
       style="fill:#434a54;stroke-width:0.264583"
       d="M 341.48902,211.77347 H 222.9594 c -1.56052,0 -2.82364,-1.26497 -2.82364,-2.82363 0,-1.55866 1.26286,-2.82364 2.82364,-2.82364 h 118.52962 c 1.55866,0 2.81914,1.26498 2.81914,2.82364 0,1.55866 -1.26048,2.82363 -2.81914,2.82363 z"
       id="path1535" /><g
       id="g1541"
       transform="matrix(0.26458333,0,0,0.26458333,214.49273,86.187671)">
	<path
   style="fill:#967adc"
   d="m 42.663,442.655 h 117.325 c 5.898,0 10.671,-4.781 10.671,-10.672 0,-5.89 -4.772,-10.671 -10.671,-10.671 H 42.663 Z"
   id="path1537" />
	<path
   style="fill:#967adc"
   d="M 469.315,421.312 H 351.99 c -5.891,0 -10.672,4.781 -10.672,10.671 0,5.891 4.781,10.672 10.672,10.672 h 117.325 z"
   id="path1539" />
</g><g
       id="g1555"
       transform="matrix(0.26458333,0,0,0.26458333,214.49273,86.187671)">
	<path
   style="fill:#ccd1d9"
   d="m 117.325,368.641 c -5.891,0 -10.664,-4.781 -10.664,-10.671 v -85.982 c 0,-5.89 4.773,-10.663 10.664,-10.663 5.891,0 10.664,4.773 10.664,10.663 v 85.982 c 0,5.89 -4.773,10.671 -10.664,10.671 z"
   id="path1543" />
	<path
   style="fill:#ccd1d9"
   d="M 159.988,325.643 H 74.662 c -5.891,0 -10.671,-4.766 -10.671,-10.656 0,-5.89 4.78,-10.672 10.671,-10.672 h 85.326 c 5.898,0 10.671,4.781 10.671,10.672 0,5.891 -4.772,10.656 -10.671,10.656 z"
   id="path1545" />
	<path
   style="fill:#ccd1d9"
   d="m 394.645,368.641 c -5.875,0 -10.656,-4.781 -10.656,-10.671 v -85.982 c 0,-5.89 4.781,-10.663 10.656,-10.663 5.906,0 10.671,4.773 10.671,10.663 v 85.982 c 0,5.89 -4.764,10.671 -10.671,10.671 z"
   id="path1547" />
	<path
   style="fill:#ccd1d9"
   d="M 437.315,325.643 H 351.99 c -5.906,0 -10.672,-4.766 -10.672,-10.656 0,-5.89 4.766,-10.672 10.672,-10.672 h 85.325 c 5.891,0 10.672,4.781 10.672,10.672 0,5.891 -4.781,10.656 -10.672,10.656 z"
   id="path1549" />
	<path
   style="fill:#ccd1d9"
   d="m 255.993,239.989 c -5.898,0 -10.672,-4.773 -10.672,-10.663 v -85.334 c 0,-5.891 4.773,-10.664 10.672,-10.664 5.891,0 10.664,4.773 10.664,10.664 v 85.334 c 0,5.89 -4.773,10.663 -10.664,10.663 z"
   id="path1551" />
	<path
   style="fill:#ccd1d9"
   d="m 298.647,197.326 h -85.325 c -5.891,0 -10.664,-4.773 -10.664,-10.664 0,-5.898 4.773,-10.672 10.664,-10.672 h 85.325 c 5.906,0 10.672,4.773 10.672,10.672 0,5.892 -4.765,10.664 -10.672,10.664 z"
   id="path1553" />
</g><g
       id="g1563"
       transform="matrix(0.26458333,0,0,0.26458333,214.49273,86.187671)">
	<path
   style="fill:#e6e9ed"
   d="M 437.315,368.641 H 351.99 c -5.906,0 -10.672,-4.781 -10.672,-10.671 v -85.982 c 0,-5.89 4.766,-10.663 10.672,-10.663 h 85.325 c 5.891,0 10.672,4.773 10.672,10.663 v 85.982 c 0,5.89 -4.781,10.671 -10.672,10.671 z m -74.67,-21.327 h 63.998 V 282.66 h -63.998 z"
   id="path1557" />
	<path
   style="fill:#e6e9ed"
   d="M 159.988,368.641 H 74.662 c -5.891,0 -10.671,-4.781 -10.671,-10.671 v -85.982 c 0,-5.89 4.78,-10.663 10.671,-10.663 h 85.326 c 5.898,0 10.671,4.773 10.671,10.663 v 85.982 c 0,5.89 -4.772,10.671 -10.671,10.671 z M 85.326,347.314 h 63.998 V 282.66 H 85.326 Z"
   id="path1559" />
	<path
   style="fill:#e6e9ed"
   d="m 255.993,239.989 c -29.413,0 -53.335,-23.921 -53.335,-53.326 0,-29.413 23.922,-53.334 53.335,-53.334 29.405,0 53.326,23.921 53.326,53.334 0,29.405 -23.921,53.326 -53.326,53.326 z m 0,-85.325 c -17.648,0 -31.999,14.351 -31.999,31.999 0,17.64 14.351,31.999 31.999,31.999 17.64,0 31.998,-14.359 31.998,-31.999 0,-17.648 -14.358,-31.999 -31.998,-31.999 z"
   id="path1561" />
</g><g
       id="g1565"
       transform="matrix(0.26458333,0,0,0.26458333,214.49273,86.187671)">
</g><g
       id="g1567"
       transform="matrix(0.26458333,0,0,0.26458333,214.49273,86.187671)">
</g><g
       id="g1569"
       transform="matrix(0.26458333,0,0,0.26458333,214.49273,86.187671)">
</g><g
       id="g1571"
       transform="matrix(0.26458333,0,0,0.26458333,214.49273,86.187671)">
</g><g
       id="g1573"
       transform="matrix(0.26458333,0,0,0.26458333,214.49273,86.187671)">
</g><g
       id="g1575"
       transform="matrix(0.26458333,0,0,0.26458333,214.49273,86.187671)">
</g><g
       id="g1577"
       transform="matrix(0.26458333,0,0,0.26458333,214.49273,86.187671)">
</g><g
       id="g1579"
       transform="matrix(0.26458333,0,0,0.26458333,214.49273,86.187671)">
</g><g
       id="g1581"
       transform="matrix(0.26458333,0,0,0.26458333,214.49273,86.187671)">
</g><g
       id="g1583"
       transform="matrix(0.26458333,0,0,0.26458333,214.49273,86.187671)">
</g><g
       id="g1585"
       transform="matrix(0.26458333,0,0,0.26458333,214.49273,86.187671)">
</g><g
       id="g1587"
       transform="matrix(0.26458333,0,0,0.26458333,214.49273,86.187671)">
</g><g
       id="g1589"
       transform="matrix(0.26458333,0,0,0.26458333,214.49273,86.187671)">
</g><g
       id="g1591"
       transform="matrix(0.26458333,0,0,0.26458333,214.49273,86.187671)">
</g><g
       id="g1593"
       transform="matrix(0.26458333,0,0,0.26458333,214.49273,86.187671)">
</g></g></svg>
